# xmcd
#
# Track frame offsets: 
#        150
#        18083
#        33127
#        47603
#        69238
#        86046
#        102829
#        118373
#        132692
#        147894
#        161908
#        172673
#
# Disc length: 2684 seconds
#
# Revision: 0
# Processed by: cddbd v1.5.2PL0 Copyright (c) Steve Scherf et al.
# Submitted via: ExactAudioCopy v0.99pb3
#
DISCID=9b0a7a0c
DTITLE=Elam McKnight - Braid My Hair
DYEAR=2003
DGENRE=Blues
TTITLE0=Braid My Hair
TTITLE1=Crying Shame
TTITLE2=Only Game In Town
TTITLE3=Sugar Cane
TTITLE4=Devil Got Religion
TTITLE5=Ms. Maureen
TTITLE6=Terraplane Blues
TTITLE7=Three Legged Dog
TTITLE8=Bob Zarecor Blues
TTITLE9=Ms. Maureen (Acoustic)
TTITLE10=Three Legged Dog (Acoustic)
TTITLE11=Sugar Cane (Unabridged)
EXTD=
EXTT0=
EXTT1=
EXTT2=
EXTT3=
EXTT4=
EXTT5=
EXTT6=
EXTT7=
EXTT8=
EXTT9=
EXTT10=
EXTT11=
PLAYORDER=
